<?xml version="1.0" encoding="UTF-8"?>
<svg id="Layer_1" xmlns="http://www.w3.org/2000/svg" xmlns:xlink="http://www.w3.org/1999/xlink" version="1.1" viewBox="0 0 12.86 11.95">
  <!-- Generator: Adobe Illustrator 30.1.0, SVG Export Plug-In . SVG Version: 2.1.1 Build 65)  -->
  <defs>
    <style>
      .st0 {
        fill: none;
      }

      .st1 {
        fill: url(#linear-gradient);
      }

      .st2 {
        fill: #fe0;
        fill-rule: evenodd;
      }

      .st3 {
        clip-path: url(#clippath-1);
      }

      .st4 {
        clip-path: url(#clippath);
      }
    </style>
    <clipPath id="clippath">
      <path class="st0" d="M6.43.25c3.16,0,5.73,2.57,5.73,5.73s-2.57,5.73-5.73,5.73S.7,9.14.7,5.97,3.27.25,6.43.25"/>
    </clipPath>
    <linearGradient id="linear-gradient" x1="12.79" y1="-.23" x2="1.93" y2="10.37" gradientUnits="userSpaceOnUse">
      <stop offset="0" stop-color="#343770"/>
      <stop offset=".25" stop-color="#373a74"/>
      <stop offset=".53" stop-color="#424582"/>
      <stop offset=".84" stop-color="#545699"/>
      <stop offset="1" stop-color="#6062a9"/>
    </linearGradient>
    <clipPath id="clippath-1">
      <path class="st0" d="M6.43.25c3.16,0,5.73,2.57,5.73,5.73s-2.57,5.73-5.73,5.73S.7,9.14.7,5.97,3.27.25,6.43.25"/>
    </clipPath>
  </defs>
  <g class="st4">
    <rect class="st1" x=".7" y=".25" width="11.46" height="11.46"/>
  </g>
  <g class="st3">
    <path class="st2" d="M9.93,9.26h.24v.24h-.24v.24h-.24v-.24h-.24v-.24h.24v-.24h.24v.24ZM4.18,2.91h.24v.24h.24v.24h-.24v.24h-.24v-.24h.24v-.24h-.24v.24h-.24s0-.24,0-.24h.24v-.24ZM3.46,2.79h-.24v.24h.24v-.24ZM3.22,2.55h.24v.24h.24v.24h-.24v.24h-.24v-.24h-.24v-.24h.24v-.24ZM4.18,9.02c-.26,0-.48-.21-.48-.48s.21-.48.48-.48.48.21.48.48-.21.48-.48.48ZM9.45,2.55l.22.47.5.08-.36.37.09.52-.44-.25-.44.25.08-.52-.36-.37.5-.08.22-.47ZM6.78,8.2l.28-1.61.59.29s.05.04.06.06l.21.59s.02.05.04.07c-.32.22-.7.42-1.13.58h-.04ZM8.6,4.28h0c-.08-.11-.24-.13-.34-.05l-.97.78-.35.03c.19-.07.32-.24.32-.45,0-.26-.21-.48-.48-.48s-.48.21-.48.48c0,.24.17.43.4.47l-.26.02c-.14.01-.27.09-.35.2l-.74,1.01c-.1.13-.03.32.13.36.09.02.18-.01.24-.08l.67-.88.07.84-.24,1.62c-.01.08.02.15.07.2-.16.04-.34.08-.54.1-.1,0-.22.01-.36,0v-.16h-.27c-.02-.09-.06-.17-.1-.25l.19-.19-.34-.34-.19.19c-.08-.04-.16-.08-.25-.1v-.27h-.48v.27c-.09.02-.17.06-.25.1l-.19-.19-.34.34.19.19c-.04.08-.08.16-.1.25h-.27v.48h.27c.02.09.06.17.1.25l-.19.19.34.34.19-.19c.08.04.16.08.25.1v.27h.48v-.27c.09-.02.17-.06.25-.1l.12.12v.02s.02,0,.02,0l.06.06.06-.06h.34c.08,0,.17,0,.25-.02,2.79-.41,4.01-2.58,4.32-3.05l.4.18-.29-1.07-1.08.6.48.12c-.16.22-.47.62-.97,1.03l-.22-.75s-.03-.06-.06-.07l-.55-.29-.09-.72,1.11-.87c.1-.08.12-.23.05-.33h0ZM9.69,9.5h.24v-.24h-.24v.24Z"/>
  </g>
</svg>