<?xml version="1.0" encoding="UTF-8"?>
<svg id="Layer_1" xmlns="http://www.w3.org/2000/svg" version="1.1" viewBox="0 0 9.04 10.71">
  <!-- Generator: Adobe Illustrator 30.1.0, SVG Export Plug-In . SVG Version: 2.1.1 Build 65)  -->
  <defs>
    <style>
      .st0 {
        fill: #343770;
      }
    </style>
  </defs>
  <path class="st0" d="M7.1,9.49c.03-.2.15-.4.4-.4.28,0,.35.25.35.36,0,0,0,.02,0,.03,0,0-.05,0-.19,0h-.56ZM7.75,9.67c.13,0,.26,0,.31-.01.01,0,.02,0,.02-.02,0-.03.01-.08.01-.16,0-.26-.16-.6-.59-.6s-.66.35-.66.77c0,.37.19.75.7.75.19,0,.32-.04.42-.09,0,0,.01-.01.01-.03v-.17s0-.02-.01-.01c-.12.06-.24.08-.38.08-.34,0-.5-.22-.5-.51h.65ZM4.69,10.37s.02,0,.02-.02v-1.08c.11-.11.22-.17.36-.17.2,0,.3.13.3.36v.88s0,.02.02.02h.21s.02,0,.02-.02v-.88c0-.07,0-.16-.02-.19.1-.11.22-.17.37-.17.21,0,.31.17.31.37v.88s0,.02.02.02h.21s.02,0,.02-.02v-.9c0-.46-.26-.57-.49-.57s-.38.1-.5.22c-.08-.15-.22-.22-.4-.22-.16,0-.31.06-.45.19,0-.05,0-.11-.02-.14,0,0-.01-.02-.02-.02h-.19s-.02,0-.02.02c0,.06.01.16.01.3v1.12s0,.02.02.02h.21ZM3.45,9.1c.31,0,.44.27.44.55,0,.37-.21.54-.42.54-.29,0-.44-.24-.44-.55s.17-.54.43-.54ZM3.46,8.89c-.42,0-.69.34-.69.76,0,.37.21.76.69.76.4,0,.68-.31.68-.76,0-.43-.26-.76-.68-.76ZM2.42,10.37s.02,0,.02-.02v-1.95s0-.02-.01-.02h-.22s-.02,0-.02.02v.81h-.99v-.81s0-.02-.02-.02h-.21s-.02,0-.02.02v1.94s0,.02.02.02h.21s.02,0,.02-.02v-.9h.99v.91s0,.02.02.02h.21Z"/>
  <path class="st0" d="M7.2,2.7h0S4.89.39,4.89.39c-.1-.1-.23-.15-.37-.15s-.27.05-.37.15L1.84,2.7s0,0,0,0c-.2.2-.2.53,0,.74.09.09.22.15.35.15,0,0,.01,0,.02,0h.09v1.7c0,.34.27.61.61.61h.9c.09,0,.17-.07.17-.17v-1.33c0-.15.12-.28.28-.28h.53c.15,0,.28.12.28.28v1.33c0,.09.07.17.17.17h.9c.34,0,.61-.27.61-.61v-1.7h.09c.14,0,.27-.05.37-.15.2-.2.2-.53,0-.74Z"/>
</svg>