<?xml version="1.0" encoding="UTF-8"?>
<svg id="Layer_1" xmlns="http://www.w3.org/2000/svg" version="1.1" viewBox="0 0 9.04 8.12">
  <!-- Generator: Adobe Illustrator 30.1.0, SVG Export Plug-In . SVG Version: 2.1.1 Build 65)  -->
  <defs>
    <style>
      .st0 {
        fill: #343770;
      }
    </style>
  </defs>
  <path class="st0" d="M5.4,4.45H1.46c-.14,0-.26-.12-.26-.26s.12-.26.26-.26h3.94c.14,0,.26.12.26.26s-.12.26-.26.26h0ZM6.92,6.85H1.47c-.14,0-.26-.12-.26-.26s.12-.26.26-.26h5.45c.14,0,.26.11.26.26s-.12.26-.26.26h0ZM6.92,2.05H1.47c-.14,0-.26-.12-.26-.26s.12-.26.26-.26h5.45c.14,0,.26.11.26.26s-.12.26-.26.26h0Z"/>
</svg>