<?xml version="1.0" encoding="UTF-8"?>
<svg id="Layer_1" xmlns="http://www.w3.org/2000/svg" version="1.1" viewBox="0 0 11.29 11.95">
  <!-- Generator: Adobe Illustrator 30.1.0, SVG Export Plug-In . SVG Version: 2.1.1 Build 65)  -->
  <defs>
    <style>
      .st0 {
        fill: #343770;
      }

      .st1 {
        fill: #c69c6d;
      }

      .st1, .st2, .st3, .st4, .st5 {
        fill-rule: evenodd;
      }

      .st2 {
        fill: #f2cda4;
      }

      .st3 {
        fill: #a67c52;
      }

      .st6 {
        fill: #f6d4b0;
      }

      .st4 {
        fill: #e3ba8d;
      }

      .st5 {
        fill: #dab083;
      }

      .st7 {
        fill: #252525;
      }
    </style>
  </defs>
  <path class="st0" d="M10.76,10.26s.02,0,.02-.01v-.18s0-.02-.01-.03c-.06-.04-.19-.07-.35-.07-.33,0-.51.19-.51.41s.13.34.43.45c.21.08.27.15.27.26s-.09.2-.28.2c-.13,0-.29-.04-.4-.12,0,0-.02,0-.02.01v.2s0,.02.02.03c.09.05.24.09.4.09.31,0,.54-.15.54-.43,0-.21-.12-.34-.43-.45-.22-.09-.28-.15-.28-.24s.07-.19.26-.19c.13,0,.26.04.35.09M9.69,11.26s0-.02-.02-.01c-.05.02-.1.02-.14.02-.13,0-.18-.08-.18-.22v-.84h.32s.02,0,.02-.02v-.18s0-.02-.02-.02h-.32c0-.15,0-.32.02-.43,0-.01,0-.01-.02-.01l-.2.03s-.02,0-.02.02c-.01.07-.02.27-.03.38h-.2s-.02,0-.02.02v.17s0,.02.02.02h.2v.88c0,.29.13.39.35.39.08,0,.16-.01.23-.04.02,0,.02-.02.02-.03v-.15ZM8.69,11.23s0-.01-.02-.01c-.08.03-.17.04-.28.04-.28,0-.53-.18-.53-.54,0-.33.22-.53.53-.53.12,0,.2.02.28.05.01,0,.02,0,.02-.01v-.19s0-.02-.01-.03c-.05-.02-.13-.04-.28-.04-.47,0-.78.33-.78.76,0,.4.25.75.74.75.11,0,.23,0,.33-.05.01,0,.01,0,.01-.02v-.19ZM7.29,10.01s0-.02-.02-.02h-.21s-.02,0-.02.02v1.1c-.09.1-.2.15-.35.15-.21,0-.32-.14-.32-.37v-.88s0-.02-.02-.02h-.21s-.02,0-.02.02v.91c0,.44.24.56.49.56.15,0,.31-.04.44-.17,0,.04,0,.1.02.13,0,.01,0,.01.02.01h.19s.02,0,.02-.02c0-.07-.02-.14-.02-.3v-1.12ZM5.48,11.23c-.07.03-.16.04-.24.04-.26,0-.51-.15-.51-.54,0-.31.21-.54.55-.54.07,0,.15,0,.2.03v1.01ZM5.22,11.48c.17,0,.34-.03.51-.11.01,0,.02,0,.02-.02,0-.05,0-.1,0-.14v-1.89s0-.01-.02-.01h-.22s-.02,0-.02.02v.66c-.06,0-.11-.02-.19-.02-.49,0-.82.33-.82.77,0,.49.32.75.74.75ZM3.55,10.18c.31,0,.44.27.44.55,0,.37-.21.54-.42.54-.29,0-.44-.24-.44-.55s.17-.54.43-.54ZM3.56,9.97c-.42,0-.69.34-.69.76,0,.37.21.76.69.76.4,0,.68-.31.68-.76,0-.43-.26-.76-.68-.76ZM2,10s-.02,0-.02.02c0,.08.02.26.02.38v1.03s0,.02.02.02h.21s.02,0,.02-.02v-1c.08-.12.27-.22.47-.22.02,0,.02,0,.02-.02v-.22s0-.02-.02-.02c-.19,0-.38.11-.48.26,0-.07-.01-.17-.02-.21,0-.01,0-.02-.03-.02h-.19ZM.69,9.69s.14,0,.26,0c.3,0,.51.15.51.42,0,.33-.26.44-.55.44-.13,0-.18,0-.23,0v-.85ZM.44,11.44s0,.02.02.02h.21s.02,0,.02-.02v-.67c.07,0,.1,0,.23,0,.43,0,.79-.21.79-.67,0-.34-.23-.64-.76-.64-.2,0-.4,0-.49,0-.01,0-.02,0-.02.02v1.94Z"/>
  <polygon class="st6" points="5.65 .47 8.85 2.31 8.85 6.01 5.65 7.85 2.45 6.01 2.45 2.31 5.65 .47"/>
  <polygon class="st3" points="5.65 4.16 8.85 2.31 8.85 6.01 5.65 7.85 5.65 4.16 5.65 4.16"/>
  <polygon class="st1" points="5.64 4.16 5.64 7.85 2.45 6.01 2.45 2.31 5.64 4.16"/>
  <polygon class="st4" points="5.65 .47 8.74 2.25 5.65 4.04 2.55 2.25 5.65 .47"/>
  <polygon class="st2" points="6.88 1.17 7.59 1.59 4.41 3.42 3.7 3.01 6.88 1.17 6.88 1.17"/>
  <polygon class="st5" points="4.41 3.42 4.41 4.46 3.68 4.04 3.68 3 4.41 3.42"/>
  <polygon class="st5" points="7.19 1.36 7.27 1.41 4.11 3.24 4.02 3.19 7.19 1.36"/>
  <path class="st7" d="M6.08,6.68l.37-.7.37.28-.73.42ZM6.26,7.06v-.49l.37-.21v.49l-.37.21Z"/>
</svg>