<?xml version="1.0" encoding="UTF-8"?>
<svg id="Layer_1" xmlns="http://www.w3.org/2000/svg" version="1.1" viewBox="0 0 9.04 10.71">
  <!-- Generator: Adobe Illustrator 30.1.0, SVG Export Plug-In . SVG Version: 2.1.1 Build 65)  -->
  <path d="M7.52,9.24c.1-.1.23-.16.38-.16.21,0,.31.15.31.38v.86s0,.02.02.02h.21s.02,0,.02-.02v-.89c0-.47-.28-.58-.49-.58-.18,0-.32.06-.44.17v-.82s0-.01-.02-.01h-.22s-.02,0-.02.02v2.11s0,.02.02.02h.21s.02,0,.02-.02v-1.08ZM6.97,10.12s0-.01-.02-.01c-.08.03-.17.04-.28.04-.28,0-.53-.18-.53-.54,0-.33.22-.53.53-.53.12,0,.2.02.28.05.01,0,.02,0,.02-.01v-.19s0-.02-.01-.03c-.05-.02-.13-.04-.28-.04-.47,0-.78.33-.78.76,0,.4.25.75.74.75.11,0,.23,0,.33-.05.01,0,.01,0,.01-.02v-.19ZM5.02,8.89s-.02,0-.02.02c0,.08.02.26.02.38v1.03s0,.02.02.02h.21s.02,0,.02-.02v-1c.08-.12.27-.22.47-.22.02,0,.02,0,.02-.02v-.22s0-.02-.02-.02c-.19,0-.38.11-.48.26,0-.07-.01-.17-.02-.21,0-.01,0-.02-.03-.02h-.19ZM4.6,9.42c0-.31-.16-.56-.54-.56-.16,0-.31.03-.43.09,0,0-.02.01-.02.02v.18s.01.02.02.01c.11-.06.24-.09.38-.09.29,0,.34.21.34.3v.07s-.1,0-.21,0c-.37,0-.67.14-.67.46s.24.47.56.47c.17,0,.34-.03.56-.13,0,0,0,0,0-.01,0-.05,0-.09,0-.14v-.67ZM4.35,10.12c-.09.04-.18.05-.27.05-.26,0-.36-.13-.36-.27,0-.17.14-.27.43-.27.09,0,.16,0,.2.01v.47ZM2.29,9.46c.03-.2.15-.4.4-.4.28,0,.35.25.35.36,0,0,0,.02,0,.03,0,0-.05,0-.19,0h-.56ZM2.94,9.64c.13,0,.26,0,.31-.01.01,0,.02,0,.02-.02,0-.03.01-.08.01-.16,0-.26-.16-.6-.59-.6s-.66.35-.66.77c0,.37.19.75.7.75.19,0,.32-.04.42-.09,0,0,.02-.01.02-.03v-.17s0-.02-.02-.01c-.12.06-.24.08-.38.08-.34,0-.5-.22-.5-.51h.65ZM1.1,10.37c.44,0,.68-.23.68-.56,0-.22-.11-.41-.48-.57l-.13-.05c-.27-.11-.34-.22-.34-.35,0-.13.08-.29.4-.29.17,0,.34.03.44.1.01,0,.02,0,.02-.01v-.2s0-.02-.01-.03c-.09-.05-.26-.08-.44-.08-.4,0-.64.22-.64.53,0,.2.08.39.46.55l.13.05c.27.12.35.23.35.37,0,.18-.13.31-.42.31-.16,0-.36-.04-.51-.15-.01,0-.02,0-.02,0v.22s0,.03.02.04c.12.07.3.11.51.11Z"/>
  <path d="M4.25,3.7c-.62,0-1.12-.5-1.12-1.12s.5-1.12,1.12-1.12,1.12.5,1.12,1.12-.5,1.12-1.12,1.12M6.88,4.42l-.71-.71c.63-1.07.28-2.44-.79-3.07C4.32.01,2.94.37,2.31,1.43c-.63,1.07-.28,2.44.79,3.07.7.42,1.58.42,2.28,0l.71.71c.22.21.58.21.79-.01.21-.22.21-.56,0-.78Z"/>
</svg>