<?xml version="1.0" encoding="UTF-8"?>
<svg id="Layer_1" xmlns="http://www.w3.org/2000/svg" xmlns:xlink="http://www.w3.org/1999/xlink" version="1.1" viewBox="0 0 10.15 11.13">
  <!-- Generator: Adobe Illustrator 30.1.0, SVG Export Plug-In . SVG Version: 2.1.1 Build 65)  -->
  <defs>
    <style>
      .st0 {
        fill: none;
      }

      .st1 {
        fill: url(#linear-gradient);
      }

      .st2, .st3 {
        fill: #343770;
      }

      .st3 {
        fill-rule: evenodd;
      }

      .st4 {
        clip-path: url(#clippath);
      }
    </style>
    <clipPath id="clippath">
      <path class="st0" d="M6.4,3.37c0-.73-.6-1.33-1.33-1.33s-1.33.6-1.33,1.33.6,1.33,1.33,1.33,1.33-.6,1.33-1.33"/>
    </clipPath>
    <linearGradient id="linear-gradient" x1="5.54" y1="4.15" x2="4.36" y2="2.17" gradientUnits="userSpaceOnUse">
      <stop offset="0" stop-color="#343770"/>
      <stop offset=".25" stop-color="#373a74"/>
      <stop offset=".53" stop-color="#424582"/>
      <stop offset=".84" stop-color="#545699"/>
      <stop offset="1" stop-color="#6062a9"/>
    </linearGradient>
  </defs>
  <path class="st3" d="M6.88,3.37c0-1-.81-1.81-1.81-1.81s-1.81.81-1.81,1.81.81,1.81,1.81,1.81,1.81-.81,1.81-1.81M8.11,3.75v-.76c0-.1-.09-.19-.19-.19h-.2c-.08,0-.15-.06-.18-.13-.05-.19-.13-.37-.22-.54-.01-.03-.02-.06-.02-.09,0-.05.02-.1.06-.13l.14-.15s.06-.08.06-.13-.02-.1-.06-.13l-.54-.54s-.08-.06-.13-.06-.1.02-.13.06l-.14.14s-.08.06-.13.06c-.03,0-.06,0-.09-.02-.17-.1-.35-.17-.54-.23-.08-.02-.13-.1-.13-.18v-.2c0-.11-.09-.19-.19-.19h-.76c-.1,0-.19.09-.19.19v.2c0,.08-.06.15-.13.18-.19.05-.37.13-.54.23-.03.01-.06.02-.09.02-.05,0-.1-.02-.13-.06l-.15-.14s-.08-.06-.13-.06-.1.02-.13.06l-.53.54s-.06.08-.06.14.02.1.06.13l.14.14s.06.08.06.13c0,.03,0,.06-.02.09-.1.17-.17.35-.23.54-.02.08-.1.13-.18.13h-.2c-.11,0-.19.09-.19.19v.76c0,.1.09.19.19.19h.2c.08,0,.15.06.18.13.05.19.13.37.23.54.01.03.02.06.02.09,0,.05-.02.1-.06.13l-.14.15s-.06.08-.06.13.02.1.06.13l.54.54s.08.06.13.06.1-.02.13-.06l.14-.14s.08-.06.13-.06c.03,0,.06,0,.09.02.17.1.35.17.54.22.08.02.13.1.13.18v.2c0,.1.09.19.19.19h.76c.1,0,.19-.09.19-.19v-.2c0-.08.06-.15.13-.18.19-.05.37-.13.54-.22.03-.01.06-.02.09-.02.05,0,.1.02.13.06l.15.14s.08.06.13.06.1-.02.13-.06l.54-.54s.06-.08.06-.13-.02-.1-.06-.13l-.14-.14s-.06-.08-.06-.13c0-.03,0-.06.02-.09.09-.17.17-.35.22-.54.02-.08.1-.13.18-.13h.2c.1,0,.19-.09.19-.19Z"/>
  <g class="st4">
    <rect class="st1" x="3.74" y="2.04" width="2.66" height="2.66"/>
  </g>
  <path class="st2" d="M9.85,9.57s.02,0,.02-.01v-.18s0-.02-.01-.03c-.06-.04-.19-.07-.35-.07-.33,0-.51.19-.51.4s.13.34.43.45c.21.08.27.15.27.26s-.09.2-.28.2c-.13,0-.29-.04-.41-.12,0,0-.02,0-.02.01v.2s0,.02.02.03c.09.05.24.09.4.09.31,0,.54-.15.54-.43,0-.21-.12-.34-.43-.45-.23-.09-.28-.15-.28-.24s.07-.19.26-.19c.13,0,.26.04.35.09M7.76,9.88c.03-.2.15-.4.4-.4.28,0,.35.25.35.36,0,0,0,.02,0,.03,0,0-.05,0-.19,0h-.56ZM8.41,10.07c.13,0,.26,0,.31-.01.01,0,.02,0,.02-.02,0-.03.01-.08.01-.16,0-.26-.16-.6-.59-.6s-.66.35-.66.77c0,.37.19.75.71.75.19,0,.32-.04.42-.09,0,0,.02-.01.02-.03v-.17s0-.02-.02-.01c-.12.06-.24.08-.38.08-.34,0-.5-.22-.5-.51h.65ZM7.33,10.54s0-.01-.02-.01c-.08.03-.17.04-.28.04-.28,0-.53-.18-.53-.54,0-.33.22-.53.53-.53.12,0,.2.01.28.05.01,0,.02,0,.02-.01v-.19s0-.02-.01-.03c-.05-.02-.13-.04-.28-.04-.47,0-.78.33-.78.76,0,.41.25.75.74.75.11,0,.23,0,.33-.05.01,0,.01,0,.01-.02v-.19ZM5.8,9.02c.09,0,.15-.06.15-.15s-.05-.15-.15-.15c-.09,0-.15.06-.15.15s.06.15.15.15ZM5.68,10.74s0,.02.02.02h.21s.02,0,.02-.02v-1.42s0-.02-.02-.02h-.21s-.02,0-.02.02v1.41ZM4.88,10.77s.02,0,.03-.02c.07-.18.43-1.19.52-1.42,0-.01,0-.02-.01-.02h-.21s-.02,0-.02.01c-.26.77-.38,1.09-.41,1.21h0c-.03-.12-.14-.45-.39-1.21,0-.01,0-.02-.02-.02h-.23s-.02,0-.01.02c.07.2.44,1.24.5,1.42,0,0,0,.02.03.02h.24ZM3.21,9.31s-.02,0-.02.02c0,.08.02.26.02.38v1.03s0,.02.02.02h.21s.02,0,.02-.02v-1c.08-.12.27-.22.47-.22.02,0,.02,0,.02-.02v-.22s0-.02-.02-.02c-.19,0-.38.11-.48.26,0-.07-.01-.17-.02-.21,0-.01,0-.02-.03-.02h-.19ZM1.91,9.88c.03-.2.15-.4.4-.4.28,0,.35.25.35.36,0,0,0,.02,0,.03,0,0-.05,0-.19,0h-.56ZM2.56,10.07c.13,0,.26,0,.31-.01.01,0,.02,0,.02-.02,0-.03.01-.08.01-.16,0-.26-.16-.6-.58-.6s-.66.35-.66.77c0,.37.19.75.7.75.19,0,.32-.04.42-.09,0,0,.02-.01.02-.03v-.17s0-.02-.02-.01c-.12.06-.24.08-.38.08-.34,0-.5-.22-.5-.51h.65ZM.73,10.8c.44,0,.68-.23.68-.56,0-.22-.11-.41-.48-.57l-.13-.05c-.27-.11-.35-.22-.35-.35,0-.13.08-.29.4-.29.17,0,.34.03.44.1.01,0,.02,0,.02-.01v-.2s0-.02-.01-.03c-.09-.05-.26-.08-.44-.08-.4,0-.64.22-.64.53,0,.2.08.39.46.55l.13.05c.27.12.35.23.35.37,0,.18-.13.31-.42.31-.17,0-.36-.04-.51-.15-.01,0-.02,0-.02,0v.22s0,.03.02.04c.12.07.3.11.51.11Z"/>
</svg>