<?xml version="1.0" encoding="UTF-8"?>
<svg id="Layer_1" xmlns="http://www.w3.org/2000/svg" xmlns:xlink="http://www.w3.org/1999/xlink" version="1.1" viewBox="0 0 12.86 11.95">
  <!-- Generator: Adobe Illustrator 30.1.0, SVG Export Plug-In . SVG Version: 2.1.1 Build 65)  -->
  <defs>
    <style>
      .st0 {
        fill: none;
      }

      .st1 {
        fill: url(#linear-gradient);
      }

      .st2 {
        fill: #fe0;
        fill-rule: evenodd;
      }

      .st3 {
        clip-path: url(#clippath-1);
      }

      .st4 {
        clip-path: url(#clippath);
      }
    </style>
    <clipPath id="clippath">
      <path class="st0" d="M6.43.25c3.16,0,5.73,2.57,5.73,5.73s-2.57,5.73-5.73,5.73S.7,9.14.7,5.97,3.27.25,6.43.25"/>
    </clipPath>
    <linearGradient id="linear-gradient" x1="12.79" y1="-.23" x2="1.93" y2="10.37" gradientUnits="userSpaceOnUse">
      <stop offset="0" stop-color="#343770"/>
      <stop offset=".25" stop-color="#373a74"/>
      <stop offset=".53" stop-color="#424582"/>
      <stop offset=".84" stop-color="#545699"/>
      <stop offset="1" stop-color="#6062a9"/>
    </linearGradient>
    <clipPath id="clippath-1">
      <path class="st0" d="M6.43.25c3.16,0,5.73,2.57,5.73,5.73s-2.57,5.73-5.73,5.73S.7,9.14.7,5.97,3.27.25,6.43.25"/>
    </clipPath>
  </defs>
  <g class="st4">
    <rect class="st1" x=".7" y=".25" width="11.46" height="11.46"/>
  </g>
  <g class="st3">
    <path class="st2" d="M9.21,5.99l-.07.07s-.02-.02-.02-.02l-1.64-1.64-.16.16c-.22.22-.58.22-.8,0l-.13-.13.62-.62c1.51-1.39,3.59.68,2.19,2.19ZM8.8,6.71c-.09.1-.26.1-.36,0l-.99-.99-.32.32.99.99c.1.1.1.26,0,.36-.1.1-.26.1-.36,0l-.98-.98-.02-.02-.32.32.02.02.98.98c.1.1.1.26,0,.36-.1.1-.26.1-.36,0-.18-.18-.43-.23-.66-.17-.07-.3-.37-.52-.67-.52-.01-.32-.29-.61-.61-.64.04-.55-.56-.93-1.04-.66-.66-.59-.7-1.63-.07-2.26.63-.63,1.67-.59,2.26.07l-.55.55.44.44c.34.34.86.39,1.25.14l1.34,1.34c.1.1.1.26,0,.36ZM6.79,8.73l-.19.19s-.11.07-.18.07-.13-.03-.18-.07c-.1-.09-.1-.26,0-.36l.19-.19c.1-.1.26-.1.36,0,.1.09.1.26,0,.36ZM5.39,8.43c-.1-.09-.1-.26,0-.36l.17-.17c.1-.12.27-.13.38-.02.1.1.1.26,0,.36l-.19.19c-.1.1-.26.1-.36,0h0ZM4.62,7.6c0-.07.03-.13.07-.18l.19-.19s.11-.07.18-.07c.22,0,.34.27.18.43l-.17.17c-.05.06-.12.1-.2.1-.14,0-.26-.12-.25-.25ZM4.09,6.68l.19-.19s.11-.07.18-.07c.22,0,.34.27.18.43l-.19.19c-.25.23-.58-.11-.36-.36ZM9.52,3.49c-.8-.81-2.13-.77-2.89.07-.77-.84-2.09-.88-2.89-.07-.8.8-.77,2.11.05,2.87-.42.4-.18,1.12.39,1.2-.03.39.3.75.7.75.02.43.46.74.87.63.14.51.79.69,1.17.31.21-.21.38-.35.39-.67.35,0,.66-.32.66-.67.36,0,.67-.32.67-.67.37,0,.69-.34.67-.72l.2-.2c.78-.78.78-2.04,0-2.82Z"/>
  </g>
</svg>