<?xml version="1.0" encoding="UTF-8"?>
<svg id="Layer_1" xmlns="http://www.w3.org/2000/svg" version="1.1" viewBox="0 0 53.37 19.89">
  <!-- Generator: Adobe Illustrator 30.1.0, SVG Export Plug-In . SVG Version: 2.1.1 Build 65)  -->
  <defs>
    <style>
      .st0 {
        fill: #e60c80;
      }

      .st1 {
        fill: #343770;
      }
    </style>
  </defs>
  <path class="st1" d="M1.95,6.78c0-.25.06-.33.35-.39l1.25-.14.19-2.18c.06-.29.14-.35.39-.35h.1c.29,0,.35.1.35.35v2.18h3.49c.37,0,.45.12.45.45v.08c0,.33-.08.45-.45.45h-3.49v5.38c0,1.73.7,2.38,2.01,2.38.68,0,1.29-.08,1.83-.23.29-.1.45.04.45.37v.08c0,.33-.12.45-.45.55-.55.16-1.15.23-1.81.23-2.04,0-3.06-1.13-3.06-3.37v-5.38h-1.25c-.25,0-.35-.1-.35-.35v-.1ZM18.13,10.96c-.06.37-.14.47-.51.47h-6.23v.68c0,2.1.93,2.88,3.21,2.88,1.03,0,1.97-.14,2.82-.43.31-.1.43-.02.43.35v.12c0,.33-.06.37-.43.51-.8.29-1.73.43-2.8.43-2.9,0-4.27-1.17-4.27-3.99v-1.91c0-2.67,1.32-3.99,3.95-3.99,2.47,0,3.88,1.27,3.88,3.76,0,.41-.02.78-.06,1.13ZM11.4,10.51h5.8v-.78c0-1.81-.97-2.73-2.9-2.73s-2.9.92-2.9,2.73v.78ZM30.62,15.33c0,.37-.1.47-.47.47h-.1c-.37,0-.47-.1-.47-.47v-5.73c0-2.36,1.3-3.53,3.91-3.53,2.8,0,3.91,1.27,3.91,3.53v5.73c0,.37-.1.47-.47.47h-.1c-.37,0-.47-.1-.47-.47v-5.73c0-1.71-.7-2.55-2.88-2.55s-2.88.84-2.88,2.55v5.73ZM46.9,12.91c0,2.2-1.23,3.06-4.01,3.06-1.95,0-3.43-.88-3.43-2.84s1.27-2.79,3.97-2.79h2.43v-1.34c0-1.46-.95-1.99-2.75-1.99-.92,0-1.69.1-2.34.27-.33.1-.43.02-.43-.35v-.14c0-.33.1-.43.43-.51.6-.14,1.36-.21,2.28-.21,2.55,0,3.84.97,3.84,2.92v3.91ZM45.87,11.2h-2.4c-2.08,0-2.98.51-2.98,1.93,0,1.27.8,1.91,2.4,1.91,2.08,0,2.98-.47,2.98-2.16v-1.67ZM21.78,10.94c-.1.15-.21.34-.35.59l-2.18,3.75c-.23.41-.19.52.25.52h.1c.37,0,.64-.17.84-.52l2.14-3.79c.29-.51.58-.77.87-.78v-1c-1.01,0-1.66,1.23-1.66,1.23ZM23.71,10.78c.12-.11.25-.28.38-.52l.16-.29c-.23-.16-.51-.27-.81-.27v1s0,0,.01,0c.09,0,.17.02.25.07ZM49.55,3.73h.9c.15,0,.27.02.37.07.18.08.27.24.27.46,0,.12-.02.21-.07.29-.05.07-.12.13-.2.18.08.03.13.07.17.12.04.05.06.13.06.25v.26c.01.07.02.13.03.17.02.06.04.1.09.12v.04h-.32s-.02-.04-.02-.06c0-.03,0-.08-.01-.15l-.02-.32c0-.13-.05-.21-.14-.26-.05-.02-.13-.04-.24-.04h-.6v.83h-.26v-1.95ZM50.42,4.62c.12,0,.22-.02.29-.07.07-.05.11-.14.11-.27,0-.14-.05-.23-.15-.28-.05-.03-.13-.04-.22-.04h-.64v.67h.61ZM51.46,3.59c-.28-.28-.67-.46-1.1-.46s-.82.17-1.1.46c-.28.28-.46.67-.46,1.1s.17.82.46,1.1c.28.28.67.46,1.1.46s.82-.17,1.1-.46c.28-.28.46-.67.46-1.11s-.17-.82-.46-1.11ZM50.36,2.95c.48,0,.92.2,1.24.51s.51.75.51,1.24-.2.92-.51,1.24c-.32.32-.75.51-1.24.51s-.92-.2-1.24-.51c-.32-.32-.51-.75-.51-1.24s.2-.92.51-1.24c.32-.32.75-.51,1.24-.51ZM25.48,11.53c-.07-.13-.14-.24-.21-.35-.11.18-.35.51-.69.79l1.87,3.31c.19.34.47.52.84.52h.1c.45,0,.49-.11.25-.52l-2.16-3.75Z"/>
  <path class="st0" d="M21.43,10.34c.08.13.14.24.2.35.13-.22.36-.53.67-.78l-1.87-3.31c-.2-.34-.47-.52-.84-.52h-.1c-.45,0-.49.11-.25.52l2.18,3.75ZM27.39,6.07h-.1c-.37,0-.64.17-.84.52l-2.14,3.79c-.29.52-.57.78-.86.78,0,0,0,0,0,0-.08,0-.17-.03-.25-.07-.12.11-.26.28-.39.52l-.16.29c.23.16.5.27.81.27,1.01,0,1.68-1.24,1.68-1.24h0c.11-.17.23-.36.36-.58l2.16-3.75c.23-.41.19-.52-.25-.52Z"/>
</svg>