<?xml version="1.0" encoding="UTF-8"?>
<svg id="Layer_1" xmlns="http://www.w3.org/2000/svg" version="1.1" viewBox="0 0 12.86 11.95">
  <!-- Generator: Adobe Illustrator 30.1.0, SVG Export Plug-In . SVG Version: 2.1.1 Build 65)  -->
  <defs>
    <style>
      .st0 {
        fill: #093;
      }
    </style>
  </defs>
  <path class="st0" d="M8.04,4.41c-.07.19-.33.34-.54.39-.14.03-.33.05-.97-.21-.81-.34-1.33-1.16-1.37-1.21-.04-.05-.33-.44-.33-.83s.2-.59.28-.67c.07-.07.18-.1.28-.1.03,0,.06,0,.09,0,.08,0,.12,0,.18.14.07.16.23.56.25.6.02.04.04.1.01.15-.03.06-.05.08-.09.13-.04.05-.08.08-.12.13-.04.04-.08.09-.03.17.05.08.21.34.45.56.31.27.56.36.65.4.07.03.15.02.19-.03.06-.07.14-.18.22-.29.06-.08.12-.09.2-.06.07.03.47.22.55.26.08.04.13.06.15.09.02.03.02.19-.05.38M6.43.52h0c-1.52,0-2.76,1.24-2.76,2.76,0,.6.19,1.16.53,1.62l-.34,1.03,1.06-.34c.44.29.96.46,1.52.46,1.52,0,2.76-1.24,2.76-2.76S7.95.52,6.43.52Z"/>
  <path class="st0" d="M11.76,9.5c.3,0,.48.2.48.5,0,.4-.29.58-.59.58-.06,0-.12,0-.17-.02v-1.02c.08-.03.17-.05.28-.05M11.79,9.28c-.25,0-.45.08-.56.12,0,0,0,0,0,.01,0,.04,0,.11,0,.13v1.87s0,.02.02.02c.01,0,.15-.02.22-.02.02,0,.02,0,.02-.02v-.6s.08.01.15.01c.43,0,.86-.26.86-.81,0-.4-.26-.71-.7-.71ZM10.18,9.5c.3,0,.48.2.48.5,0,.4-.29.58-.59.58-.06,0-.12,0-.17-.02v-1.02c.08-.03.17-.05.28-.05ZM10.21,9.28c-.25,0-.45.08-.56.12,0,0,0,0,0,.01,0,.04,0,.11,0,.13v1.87s0,.02.02.02c.01,0,.15-.02.22-.02.02,0,.02,0,.02-.02v-.6s.08.01.15.01c.43,0,.86-.26.86-.81,0-.4-.26-.71-.7-.71ZM9.24,9.85c0-.31-.16-.56-.54-.56-.16,0-.31.03-.43.09,0,0-.02.01-.02.02v.18s.01.02.02.01c.11-.06.24-.09.38-.09.29,0,.34.21.34.3v.07s-.1,0-.21,0c-.37,0-.67.14-.67.46s.24.47.56.47c.17,0,.34-.03.56-.13,0,0,0,0,0-.01,0-.05,0-.09,0-.14v-.67ZM8.99,10.54c-.09.04-.18.05-.27.05-.26,0-.36-.13-.36-.27,0-.17.14-.27.43-.27.09,0,.16,0,.2.01v.47ZM7.8,9.58s.02,0,.02-.01v-.18s0-.02-.01-.03c-.06-.04-.19-.07-.35-.07-.33,0-.51.19-.51.41s.13.34.43.45c.21.08.27.15.27.26s-.09.2-.28.2c-.13,0-.29-.04-.41-.12,0,0-.02,0-.02.01v.2s0,.02.02.03c.09.05.24.09.4.09.31,0,.54-.15.54-.43,0-.21-.12-.34-.43-.45-.23-.09-.28-.15-.28-.24s.07-.19.26-.19c.13,0,.26.04.35.09ZM6.73,10.57s0-.02-.02-.01c-.05.02-.1.02-.14.02-.13,0-.18-.08-.18-.22v-.84h.32s.02,0,.02-.02v-.18s0-.02-.02-.02h-.32c0-.15,0-.32.02-.43,0-.01,0-.01-.02-.01l-.2.03s-.02,0-.02.02c-.01.07-.02.27-.03.38h-.2s-.02,0-.02.02v.17s0,.02.02.02h.2v.88c0,.29.13.39.35.39.08,0,.16-.01.23-.04.02,0,.02-.02.02-.03v-.15ZM5.7,9.85c0-.31-.16-.56-.54-.56-.16,0-.31.03-.43.09,0,0-.02.01-.02.02v.18s.01.02.02.01c.11-.06.24-.09.38-.09.29,0,.34.21.34.3v.07s-.1,0-.21,0c-.37,0-.67.14-.67.46s.24.47.56.47c.17,0,.34-.03.56-.13,0,0,0,0,0-.01,0-.05,0-.09,0-.14v-.67ZM5.46,10.54c-.09.04-.18.05-.27.05-.26,0-.36-.13-.36-.27,0-.17.14-.27.43-.27.09,0,.16,0,.2.01v.47ZM3.34,9.67c.1-.1.23-.16.38-.16.21,0,.31.15.31.38v.86s0,.02.02.02h.21s.02,0,.02-.02v-.89c0-.47-.28-.58-.49-.58-.18,0-.32.06-.44.17v-.82s0-.01-.02-.01h-.22s-.02,0-.02.02v2.11s0,.02.02.02h.21s.02,0,.02-.02v-1.08ZM1.77,8.8s0-.02-.02-.02h-.25s-.02,0-.03.02c-.29,1.15-.4,1.51-.43,1.68h0c-.02-.14-.1-.46-.4-1.68,0-.01-.01-.01-.03-.01h-.23s-.02,0-.02.02l.51,1.94s.01.02.03.02h.23s.02,0,.02-.02c.1-.34.4-1.43.45-1.69h0c.05.26.32,1.33.4,1.7,0,.01,0,.01.03.01h.24s.02,0,.02-.01l.52-1.95s0-.02-.02-.02h-.21s-.02,0-.02.02c-.27,1.1-.36,1.51-.4,1.68h0c-.11-.5-.27-1.12-.4-1.68Z"/>
</svg>